<svg width="48" height="47" viewBox="0 0 48 47" fill="none" xmlns="http://www.w3.org/2000/svg">
<path fill-rule="evenodd" clip-rule="evenodd" d="M21.1866 41.0087C15.9409 46.2887 7.02665 48.0372 1.88379 42.7572C8.74093 35.6601 1.88379 32.2315 7.02665 27.0887C9.48697 24.348 13.2607 23.1919 16.834 24.084C20.4073 24.9761 23.1947 27.7704 24.0781 31.3458C24.9615 34.9213 23.7961 38.6922 21.0495 41.1458L21.1866 41.0087ZM44.4666 3.36294C43.1226 2.02751 41.2859 1.30772 39.3924 1.37437C37.5001 1.4258 35.7133 2.25716 34.4552 3.67151L16.0095 24.2429C17.9875 24.6346 19.7959 25.6286 21.1866 27.0887C22.4375 28.3344 23.3467 29.8812 23.8266 31.5801L44.1581 13.3744C45.5639 12.1244 46.3944 10.3517 46.4552 8.47151C46.5315 6.56623 45.811 4.71524 44.4666 3.36294Z" stroke="white" stroke-width="2" stroke-linecap="round" stroke-linejoin="round"/>
</svg>
