<svg width="49" height="48" viewBox="0 0 49 48" fill="none" xmlns="http://www.w3.org/2000/svg">
<path fill-rule="evenodd" clip-rule="evenodd" d="M45.016 0.98999C46.1206 0.98999 47.016 1.88542 47.016 2.98999L47 18.13C47.0911 31.924 37.5798 43.9265 24.13 46.99C10.6553 44.0487 1.03643 32.136 1 18.344L1.026 2.99999C1.026 1.89542 1.92143 0.99999 3.026 0.99999L45.016 0.98999ZM33.048 28.95C33.0507 29.4822 32.8411 29.9934 32.4658 30.3707C32.0904 30.7479 31.5802 30.96 31.048 30.96L17.048 31.022C15.9473 31.022 15.0535 30.1327 15.048 29.032L14.994 17.284C14.994 16.1794 15.8894 15.284 16.994 15.284L30.994 15.222C32.0947 15.222 32.9885 16.1113 32.994 17.212L33.048 28.95ZM23.948 6.98999C20.6343 7.00542 17.9605 9.70427 17.976 13.018L17.976 15.27L29.976 15.216V12.964C29.9617 9.64949 27.2625 6.97449 23.948 6.98999ZM21.522 23.116C21.522 24.4967 22.6413 25.616 24.022 25.616C25.4027 25.616 26.522 24.4967 26.522 23.116C26.522 21.7353 25.4027 20.616 24.022 20.616C22.6413 20.616 21.522 21.7353 21.522 23.116Z" stroke="white" stroke-width="2" stroke-linecap="round" stroke-linejoin="round"/>
</svg>
