<svg width="52" height="52" viewBox="0 0 52 52" fill="none" xmlns="http://www.w3.org/2000/svg">
<g clip-path="url(#clip0_370_79)">
<path d="M26.0569 -0.0552979C11.6903 -0.0552979 0 11.6317 0 26C0 40.3682 11.6903 52.0552 26.0569 52.0552C40.4235 52.0552 52.1138 40.3682 52.1138 26C52.1138 11.6317 40.4235 -0.0552979 26.0569 -0.0552979ZM26.0569 50.3197C12.6474 50.3197 1.73875 39.4095 1.73875 26C1.73875 12.5905 12.6474 1.6802 26.0569 1.6802C39.4664 1.6802 50.375 12.5905 50.375 26C50.375 39.4095 39.4664 50.3197 26.0569 50.3197Z" fill="white"/>
<path d="M26.8693 9.83607C27.365 9.83607 27.768 9.43469 27.768 8.93744V5.68744C27.768 5.19019 27.365 4.78882 26.8693 4.78882C26.3737 4.78882 25.9707 5.19019 25.9707 5.68744V8.93744C25.9707 9.43469 26.3737 9.83607 26.8693 9.83607Z" fill="white"/>
<path d="M8.99433 24.2888H5.74433C5.2487 24.2888 4.8457 24.6902 4.8457 25.1874C4.8457 25.6847 5.2487 26.0861 5.74433 26.0861H8.99433C9.48995 26.0861 9.89295 25.6847 9.89295 25.1874C9.89295 24.6902 9.48995 24.2888 8.99433 24.2888Z" fill="white"/>
<path d="M42.2207 25.1874C42.2207 25.6847 42.6237 26.0861 43.1193 26.0861H46.3693C46.865 26.0861 47.268 25.6847 47.268 25.1874C47.268 24.6902 46.865 24.2888 46.3693 24.2888H43.1193C42.6237 24.2888 42.2207 24.6902 42.2207 25.1874Z" fill="white"/>
<path d="M13.991 16.4579C14.2218 16.4579 14.4509 16.3702 14.6264 16.1947C14.9774 15.8437 14.9774 15.2766 14.6264 14.9256L12.067 12.3646C11.716 12.0119 11.1489 12.0119 10.7979 12.3646C10.4469 12.7156 10.4469 13.2827 10.7979 13.6337L13.3573 16.1931C13.5312 16.3702 13.7619 16.4579 13.991 16.4579Z" fill="white"/>
<path d="M38.8795 34.3021C38.5285 33.9494 37.9614 33.9494 37.6104 34.3021C37.2594 34.6531 37.2594 35.2202 37.6104 35.5712L40.0479 38.0087C40.2234 38.1842 40.4525 38.2719 40.6833 38.2719C40.914 38.2719 41.1432 38.1842 41.3187 38.0087C41.6697 37.6577 41.6697 37.0906 41.3187 36.7396L38.8795 34.3021Z" fill="white"/>
<path d="M40.5048 12.8228C40.8558 12.4718 40.8558 11.9047 40.5048 11.5537C40.1538 11.201 39.5867 11.201 39.2357 11.5537L36.6763 14.113C36.3253 14.464 36.3253 15.0312 36.6763 15.3822C36.8518 15.5577 37.081 15.6454 37.3117 15.6454C37.5425 15.6454 37.7716 15.5577 37.9471 15.3822L40.5048 12.8228Z" fill="white"/>
<path d="M14.0465 35.1146L11.609 37.5521C11.258 37.9031 11.258 38.4702 11.609 38.8212C11.7845 38.9967 12.0136 39.0844 12.2443 39.0844C12.4751 39.0844 12.7042 38.9967 12.8797 38.8212L15.3172 36.3837C15.6682 36.0327 15.6682 35.4656 15.3172 35.1146C14.9662 34.7636 14.3975 34.7636 14.0465 35.1146Z" fill="white"/>
<path d="M31.7444 39H20.3694C18.9247 38.9448 17.875 39.9929 17.875 41.4375V42.9926C17.875 44.4519 18.9702 45.5975 20.3694 45.5H31.7444C33.1419 45.5975 34.2387 44.4519 34.2387 42.9926V41.4375C34.2387 39.9929 33.189 38.9448 31.7444 39ZM32.5 42.9926C32.5 43.4103 32.2627 43.8604 31.7444 43.9156H20.3694C19.8494 43.8604 19.6137 43.4086 19.6137 43.875V42.3199C19.6137 40.9565 19.8884 40.6803 20.3694 40.625H31.7444C32.2254 40.6803 32.5 40.9565 32.5 41.4375V42.9926Z" fill="white"/>
<path d="M26.0567 30.3338C27.2137 30.3338 28.3024 29.8837 29.1198 29.0647C30.6002 27.5843 30.7838 25.2947 29.6723 23.6128L33.9834 19.3017C34.3214 18.9621 34.3214 18.4128 33.9834 18.0732C33.6438 17.7336 33.0946 17.7336 32.7549 18.0732L28.4389 22.3892C26.7733 21.3248 24.4203 21.5068 22.9936 22.9352C21.3036 24.6252 21.3036 27.3731 22.9936 29.0631C23.8109 29.8837 24.8997 30.3338 26.0567 30.3338ZM24.5259 24.4692C24.9338 24.0597 25.4782 23.8338 26.0567 23.8338C26.6352 23.8338 27.1796 24.0597 27.5891 24.4692C28.4341 25.3142 28.4341 26.6873 27.5891 27.5323C26.7717 28.3513 25.3449 28.3513 24.5259 27.5323C23.6809 26.6873 23.6809 25.3126 24.5259 24.4692Z" fill="white"/>
</g>
<defs>
<clipPath id="clip0_370_79">
<rect width="52" height="52" fill="white"/>
</clipPath>
</defs>
</svg>
