<svg width="49" height="48" viewBox="0 0 49 48" fill="none" xmlns="http://www.w3.org/2000/svg">
<path d="M11.7803 24.99V32.99M15.7803 28.99H7.78027M45.7803 14.99C44.3216 12.5088 41.6585 10.9851 38.7803 10.9851C35.9021 10.9851 33.2389 12.5088 31.7803 14.99C30.3216 12.5088 27.6585 10.9851 24.7803 10.9851C21.9021 10.9851 19.2389 12.5088 17.7803 14.99C16.3216 12.5088 13.6585 10.9851 10.7803 10.9851C7.90207 10.9851 5.23892 12.5088 3.78027 14.99M47.7803 26.99C47.7803 22.5717 44.1986 18.99 39.7803 18.99H9.78027C5.362 18.99 1.78027 22.5717 1.78027 26.99V42.99C1.78027 45.1991 3.57113 46.99 5.78027 46.99C8.70027 46.99 11.4803 43.39 15.1803 37.87C15.5408 37.3361 16.1363 37.0085 16.7803 36.99H32.7803C33.4455 36.989 34.0677 37.3188 34.4403 37.87C38.0803 43.39 40.7803 46.99 43.7803 46.99C45.9894 46.99 47.7803 45.1991 47.7803 42.99V26.99ZM37.7803 24.49C38.0564 24.49 38.2803 24.7138 38.2803 24.99C38.2803 25.2661 38.0564 25.49 37.7803 25.49C37.5041 25.49 37.2803 25.2661 37.2803 24.99C37.2803 24.7138 37.5041 24.49 37.7803 24.49ZM33.7803 28.49C34.0564 28.49 34.2803 28.7138 34.2803 28.99C34.2803 29.2661 34.0564 29.49 33.7803 29.49C33.5041 29.49 33.2803 29.2661 33.2803 28.99C33.2803 28.7138 33.5041 28.49 33.7803 28.49ZM37.7803 32.49C38.0564 32.49 38.2803 32.7138 38.2803 32.99C38.2803 33.2661 38.0564 33.49 37.7803 33.49C37.5041 33.49 37.2803 33.2661 37.2803 32.99C37.2803 32.7138 37.5041 32.49 37.7803 32.49ZM41.7803 28.49C42.0564 28.49 42.2803 28.7138 42.2803 28.99C42.2803 29.2661 42.0564 29.49 41.7803 29.49C41.5041 29.49 41.2803 29.2661 41.2803 28.99C41.2803 28.7138 41.5041 28.49 41.7803 28.49ZM20.7803 4.98999C20.7803 7.19913 22.5711 8.98999 24.7803 8.98999C26.9894 8.98999 28.7803 7.19913 28.7803 4.98999C28.7803 2.78085 26.9894 0.98999 24.7803 0.98999C22.5711 0.98999 20.7803 2.78085 20.7803 4.98999ZM34.7803 4.98999C34.7803 7.19913 36.5711 8.98999 38.7803 8.98999C40.9894 8.98999 42.7803 7.19913 42.7803 4.98999C42.7803 2.78085 40.9894 0.98999 38.7803 0.98999C36.5711 0.98999 34.7803 2.78085 34.7803 4.98999ZM6.78027 4.98999C6.78027 7.19913 8.57113 8.98999 10.7803 8.98999C12.9894 8.98999 14.7803 7.19913 14.7803 4.98999C14.7803 2.78085 12.9894 0.98999 10.7803 0.98999C8.57113 0.98999 6.78027 2.78085 6.78027 4.98999Z" stroke="white" stroke-width="2" stroke-linecap="round" stroke-linejoin="round"/>
</svg>
