<svg width="48" height="49" viewBox="0 0 48 49" fill="none" xmlns="http://www.w3.org/2000/svg">
<path d="M8 24.855C8 33.6915 15.1634 40.855 24 40.855M8 24.855C8 16.0184 15.1634 8.85498 24 8.85498M8 24.855H1M24 40.855C32.8366 40.855 40 33.6915 40 24.855M24 40.855V47.855M40 24.855C40 16.0184 32.8366 8.85498 24 8.85498M40 24.855H47M24 8.85498V1.85498M35.314 13.541L40.264 8.59098M35.314 36.169L40.264 41.119M12.686 36.169L7.736 41.119M12.686 13.541L7.736 8.59098M19 24.855C19 27.6164 21.2386 29.855 24 29.855C26.7614 29.855 29 27.6164 29 24.855C29 22.0936 26.7614 19.855 24 19.855C21.2386 19.855 19 22.0936 19 24.855Z" stroke="white" stroke-width="2" stroke-linecap="round" stroke-linejoin="round"/>
</svg>
