<svg width="13" height="11" viewBox="0 0 13 11" fill="none" xmlns="http://www.w3.org/2000/svg">
<path fill-rule="evenodd" clip-rule="evenodd" d="M11.0965 0.53994L3.9365 7.44994L2.0365 5.41994C1.6865 5.08994 1.1365 5.06994 0.736504 5.34994C0.346504 5.63994 0.236503 6.14994 0.476503 6.55994L2.7265 10.2199C2.9465 10.5599 3.3265 10.7699 3.7565 10.7699C4.1665 10.7699 4.5565 10.5599 4.7765 10.2199C5.1365 9.74994 12.0065 1.55994 12.0065 1.55994C12.9065 0.639939 11.8165 -0.17006 11.0965 0.52994V0.53994Z" fill="#D9D9D9"/>
<path fill-rule="evenodd" clip-rule="evenodd" d="M11.0965 0.53994L3.9365 7.44994L2.0365 5.41994C1.6865 5.08994 1.1365 5.06994 0.736504 5.34994C0.346504 5.63994 0.236503 6.14994 0.476503 6.55994L2.7265 10.2199C2.9465 10.5599 3.3265 10.7699 3.7565 10.7699C4.1665 10.7699 4.5565 10.5599 4.7765 10.2199C5.1365 9.74994 12.0065 1.55994 12.0065 1.55994C12.9065 0.639939 11.8165 -0.17006 11.0965 0.52994V0.53994Z" fill="url(#paint0_linear_25_5718)"/>
<defs>
<linearGradient id="paint0_linear_25_5718" x1="-0.485112" y1="10.7699" x2="14.8546" y2="-0.0361035" gradientUnits="userSpaceOnUse">
<stop stop-color="#EF2779"/>
<stop offset="1" stop-color="#7834BE"/>
</linearGradient>
</defs>
</svg>
