<svg width="240" height="235" viewBox="0 0 240 235" fill="none" xmlns="http://www.w3.org/2000/svg">
<path fill-rule="evenodd" clip-rule="evenodd" d="M156.699 234.285C155.529 232.803 154.274 231.391 152.941 230.058L119 196.117L85.0589 230.059C83.8827 231.235 82.7673 232.472 81.7178 233.764C56.0029 225.114 34.1819 207.99 19.5746 185.712L40.0436 145.539L0.1103 125.192C0.0370001 123.471 0 121.74 0 120C0 91.9785 9.6045 66.2003 25.7012 45.7778L69.9467 52.7859L77.0537 7.9135C90.3881 2.8012 104.867 0 120 0C134.245 0 147.91 2.4821 160.587 7.0375L167.833 52.7859L214.052 45.4652C230.297 65.937 240 91.8354 240 120C240 122.063 239.948 124.114 239.845 126.152L199.833 146.539L220.068 186.253C205.162 208.722 182.891 225.88 156.699 234.285Z" fill="#666666"/>
</svg>
