<svg width="49" height="19" viewBox="0 0 49 19" fill="none" xmlns="http://www.w3.org/2000/svg">
<g filter="url(#filter0_d_130_44)">
<mask id="path-1-outside-1_130_44" maskUnits="userSpaceOnUse" x="-2" y="-2" width="48" height="18" fill="black">
<rect fill="white" x="-2" y="-2" width="48" height="18"/>
<path d="M4.2 8.4V14H1.49012e-08V-9.53674e-07H9.8V2.8H4.2V5.6H8.4V8.4H4.2ZM11.3969 14V-9.53674e-07H21.1969V5.6H19.7969V7H21.1969V14H16.9969V8.4H15.5969V14H11.3969ZM16.9969 5.6V2.8H15.5969V5.6H16.9969ZM26.9938 8.4V11.2H32.5938V14H22.7938V-9.53674e-07H32.5938V2.8H26.9938V5.6H31.1938V8.4H26.9938ZM38.3906 8.4V11.2H43.9906V14H34.1906V-9.53674e-07H43.9906V2.8H38.3906V5.6H42.5906V8.4H38.3906Z"/>
</mask>
<path d="M4.2 8.4V14H1.49012e-08V-9.53674e-07H9.8V2.8H4.2V5.6H8.4V8.4H4.2ZM11.3969 14V-9.53674e-07H21.1969V5.6H19.7969V7H21.1969V14H16.9969V8.4H15.5969V14H11.3969ZM16.9969 5.6V2.8H15.5969V5.6H16.9969ZM26.9938 8.4V11.2H32.5938V14H22.7938V-9.53674e-07H32.5938V2.8H26.9938V5.6H31.1938V8.4H26.9938ZM38.3906 8.4V11.2H43.9906V14H34.1906V-9.53674e-07H43.9906V2.8H38.3906V5.6H42.5906V8.4H38.3906Z" fill="#C3B7B5"/>
<path d="M4.2 8.4V6.4H2.2V8.4H4.2ZM4.2 14V16H6.2V14H4.2ZM0 14H-2V16H0V14ZM0 -9.53674e-07V-2H-2V-9.53674e-07H0ZM9.8 -9.53674e-07H11.8V-2H9.8V-9.53674e-07ZM9.8 2.8V4.8H11.8V2.8H9.8ZM4.2 2.8V0.8H2.2V2.8H4.2ZM4.2 5.6H2.2V7.6H4.2V5.6ZM8.4 5.6H10.4V3.6H8.4V5.6ZM8.4 8.4V10.4H10.4V8.4H8.4ZM2.2 8.4V14H6.2V8.4H2.2ZM4.2 12H0V16H4.2V12ZM2 14V-9.53674e-07H-2V14H2ZM0 2H9.8V-2H0V2ZM7.8 -9.53674e-07V2.8H11.8V-9.53674e-07H7.8ZM9.8 0.8H4.2V4.8H9.8V0.8ZM2.2 2.8V5.6H6.2V2.8H2.2ZM4.2 7.6H8.4V3.6H4.2V7.6ZM6.4 5.6V8.4H10.4V5.6H6.4ZM8.4 6.4H4.2V10.4H8.4V6.4ZM11.3969 14H9.39688V16H11.3969V14ZM11.3969 -9.53674e-07V-2H9.39688V-9.53674e-07H11.3969ZM21.1969 -9.53674e-07H23.1969V-2H21.1969V-9.53674e-07ZM21.1969 5.6V7.6H23.1969V5.6H21.1969ZM19.7969 5.6V3.6H17.7969V5.6H19.7969ZM19.7969 7H17.7969V9H19.7969V7ZM21.1969 7H23.1969V5H21.1969V7ZM21.1969 14V16H23.1969V14H21.1969ZM16.9969 14H14.9969V16H16.9969V14ZM16.9969 8.4H18.9969V6.4H16.9969V8.4ZM15.5969 8.4V6.4H13.5969V8.4H15.5969ZM15.5969 14V16H17.5969V14H15.5969ZM16.9969 5.6V7.6H18.9969V5.6H16.9969ZM16.9969 2.8H18.9969V0.8H16.9969V2.8ZM15.5969 2.8V0.8H13.5969V2.8H15.5969ZM15.5969 5.6H13.5969V7.6H15.5969V5.6ZM13.3969 14V-9.53674e-07H9.39688V14H13.3969ZM11.3969 2H21.1969V-2H11.3969V2ZM19.1969 -9.53674e-07V5.6H23.1969V-9.53674e-07H19.1969ZM21.1969 3.6H19.7969V7.6H21.1969V3.6ZM17.7969 5.6V7H21.7969V5.6H17.7969ZM19.7969 9H21.1969V5H19.7969V9ZM19.1969 7V14H23.1969V7H19.1969ZM21.1969 12H16.9969V16H21.1969V12ZM18.9969 14V8.4H14.9969V14H18.9969ZM16.9969 6.4H15.5969V10.4H16.9969V6.4ZM13.5969 8.4V14H17.5969V8.4H13.5969ZM15.5969 12H11.3969V16H15.5969V12ZM18.9969 5.6V2.8H14.9969V5.6H18.9969ZM16.9969 0.8H15.5969V4.8H16.9969V0.8ZM13.5969 2.8V5.6H17.5969V2.8H13.5969ZM15.5969 7.6H16.9969V3.6H15.5969V7.6ZM26.9938 8.4V6.4H24.9938V8.4H26.9938ZM26.9938 11.2H24.9938V13.2H26.9938V11.2ZM32.5938 11.2H34.5938V9.2H32.5938V11.2ZM32.5938 14V16H34.5938V14H32.5938ZM22.7938 14H20.7938V16H22.7938V14ZM22.7938 -9.53674e-07V-2H20.7938V-9.53674e-07H22.7938ZM32.5938 -9.53674e-07H34.5938V-2H32.5938V-9.53674e-07ZM32.5938 2.8V4.8H34.5938V2.8H32.5938ZM26.9938 2.8V0.8H24.9938V2.8H26.9938ZM26.9938 5.6H24.9938V7.6H26.9938V5.6ZM31.1938 5.6H33.1938V3.6H31.1938V5.6ZM31.1938 8.4V10.4H33.1938V8.4H31.1938ZM24.9938 8.4V11.2H28.9938V8.4H24.9938ZM26.9938 13.2H32.5938V9.2H26.9938V13.2ZM30.5938 11.2V14H34.5938V11.2H30.5938ZM32.5938 12H22.7938V16H32.5938V12ZM24.7938 14V-9.53674e-07H20.7938V14H24.7938ZM22.7938 2H32.5938V-2H22.7938V2ZM30.5938 -9.53674e-07V2.8H34.5938V-9.53674e-07H30.5938ZM32.5938 0.8H26.9938V4.8H32.5938V0.8ZM24.9938 2.8V5.6H28.9938V2.8H24.9938ZM26.9938 7.6H31.1938V3.6H26.9938V7.6ZM29.1938 5.6V8.4H33.1938V5.6H29.1938ZM31.1938 6.4H26.9938V10.4H31.1938V6.4ZM38.3906 8.4V6.4H36.3906V8.4H38.3906ZM38.3906 11.2H36.3906V13.2H38.3906V11.2ZM43.9906 11.2H45.9906V9.2H43.9906V11.2ZM43.9906 14V16H45.9906V14H43.9906ZM34.1906 14H32.1906V16H34.1906V14ZM34.1906 -9.53674e-07V-2H32.1906V-9.53674e-07H34.1906ZM43.9906 -9.53674e-07H45.9906V-2H43.9906V-9.53674e-07ZM43.9906 2.8V4.8H45.9906V2.8H43.9906ZM38.3906 2.8V0.8H36.3906V2.8H38.3906ZM38.3906 5.6H36.3906V7.6H38.3906V5.6ZM42.5906 5.6H44.5906V3.6H42.5906V5.6ZM42.5906 8.4V10.4H44.5906V8.4H42.5906ZM36.3906 8.4V11.2H40.3906V8.4H36.3906ZM38.3906 13.2H43.9906V9.2H38.3906V13.2ZM41.9906 11.2V14H45.9906V11.2H41.9906ZM43.9906 12H34.1906V16H43.9906V12ZM36.1906 14V-9.53674e-07H32.1906V14H36.1906ZM34.1906 2H43.9906V-2H34.1906V2ZM41.9906 -9.53674e-07V2.8H45.9906V-9.53674e-07H41.9906ZM43.9906 0.8H38.3906V4.8H43.9906V0.8ZM36.3906 2.8V5.6H40.3906V2.8H36.3906ZM38.3906 7.6H42.5906V3.6H38.3906V7.6ZM40.5906 5.6V8.4H44.5906V5.6H40.5906ZM42.5906 6.4H38.3906V10.4H42.5906V6.4Z" fill="#323232" mask="url(#path-1-outside-1_130_44)"/>
</g>
<defs>
<filter id="filter0_d_130_44" x="0" y="0" width="48.9907" height="19" filterUnits="userSpaceOnUse" color-interpolation-filters="sRGB">
<feFlood flood-opacity="0" result="BackgroundImageFix"/>
<feColorMatrix in="SourceAlpha" type="matrix" values="0 0 0 0 0 0 0 0 0 0 0 0 0 0 0 0 0 0 127 0" result="hardAlpha"/>
<feOffset dx="4" dy="4"/>
<feGaussianBlur stdDeviation="0.5"/>
<feComposite in2="hardAlpha" operator="out"/>
<feColorMatrix type="matrix" values="0 0 0 0 0 0 0 0 0 0 0 0 0 0 0 0 0 0 0.25 0"/>
<feBlend mode="normal" in2="BackgroundImageFix" result="effect1_dropShadow_130_44"/>
<feBlend mode="normal" in="SourceGraphic" in2="effect1_dropShadow_130_44" result="shape"/>
</filter>
</defs>
</svg>
