<svg width="94" height="95" viewBox="0 0 94 95" fill="none" xmlns="http://www.w3.org/2000/svg">
<path d="M6.59194 69.638H36.9999M9.04795 21.638H84.9839M36.9999 45.642L1.04395 45.638M92.352 39.642C88.1703 15.9708 66.4681 -0.489682 42.546 1.86566C18.6239 4.22101 0.548734 24.5979 1.0639 48.6302C1.57908 72.6624 20.5109 92.246 44.5119 93.574C20.5119 61.574 20.0759 27.742 44.0759 1.74205M49.9199 1.74205C58.8887 11.0798 64.84 22.9002 67 35.666M68.9999 53.642V77.642M80.9999 65.642H56.9999M71.1399 93.242L73.3519 92.402C83.8719 88.402 92.9999 78.306 92.9999 67.05V53.466C93.0007 51.8024 92.0138 50.297 90.4879 49.634C83.5839 47.0539 76.2821 45.7002 68.9119 45.6341C61.5987 45.6965 54.354 47.0507 47.5119 49.634C45.9861 50.297 44.9992 51.8024 44.9999 53.466V67.038C44.9999 78.294 53.9519 88.382 64.4719 92.39L66.6839 93.23C68.1172 93.7819 69.7037 93.7862 71.1399 93.242Z" stroke="white" stroke-width="2" stroke-linecap="round" stroke-linejoin="round"/>
</svg>
